<?xml version="1.0" standalone="no"?>
<!DOCTYPE svg PUBLIC "-//W3C//DTD SVG 20010904//EN"
 "http://www.w3.org/TR/2001/REC-SVG-20010904/DTD/svg10.dtd">
<svg version="1.0" xmlns="http://www.w3.org/2000/svg"
 width="936.000000pt" height="804.000000pt" viewBox="0 0 936.000000 804.000000"
 preserveAspectRatio="xMidYMid meet">

<g transform="translate(0.000000,804.000000) scale(0.100000,-0.100000)"
fill="#000000" stroke="none">
<path d="M4485 6093 c-16 -2 -36 -12 -43 -21 -10 -14 -14 -14 -21 -3 -7 11
-15 11 -47 1 -22 -7 -44 -17 -50 -22 -8 -5 -14 -1 -18 14 -5 20 -8 21 -19 8
-7 -9 -24 -14 -44 -12 -18 2 -48 -4 -68 -13 -21 -10 -45 -15 -60 -11 -14 4
-33 1 -44 -6 -15 -9 -23 -9 -36 2 -14 11 -16 11 -13 -1 2 -10 -8 -15 -34 -17
-21 -2 -38 -7 -38 -11 0 -4 -13 -6 -30 -3 -18 3 -35 -2 -45 -12 -9 -9 -23 -16
-31 -16 -8 0 -29 -8 -47 -17 -18 -9 -40 -16 -50 -14 -10 1 -27 -5 -38 -14 -10
-10 -27 -15 -39 -12 -11 3 -20 1 -20 -4 0 -5 -7 -9 -15 -9 -9 0 -15 -9 -15
-22 0 -19 -2 -20 -10 -8 -6 10 -10 11 -10 3 0 -7 -9 -13 -20 -13 -11 0 -28 -9
-37 -20 -10 -11 -27 -20 -39 -20 -11 0 -29 -9 -39 -20 -11 -12 -34 -28 -52
-36 -18 -9 -31 -21 -30 -26 1 -6 -4 -13 -10 -15 -7 -3 -13 1 -14 9 0 7 -6 -3
-13 -22 -9 -23 -19 -34 -29 -32 -9 1 -24 -9 -33 -23 -9 -13 -20 -22 -25 -19
-5 3 -9 -1 -9 -9 0 -7 -12 -19 -26 -25 -18 -9 -24 -17 -19 -31 5 -15 -1 -22
-30 -31 -19 -6 -33 -16 -30 -21 4 -5 0 -9 -8 -9 -13 0 -42 -47 -39 -62 1 -5
-5 -8 -13 -8 -8 0 -15 -6 -15 -14 0 -8 -8 -17 -18 -20 -11 -4 -25 -19 -33 -34
-8 -15 -16 -29 -19 -32 -16 -15 -70 -95 -70 -104 0 -6 -12 -22 -25 -35 -14
-13 -25 -31 -25 -41 0 -10 -7 -23 -15 -30 -8 -7 -15 -28 -15 -46 0 -20 -5 -34
-12 -34 -9 0 -8 -3 2 -10 11 -7 9 -11 -13 -19 -15 -6 -27 -16 -28 -23 0 -7 -2
-23 -5 -35 -8 -45 12 -69 80 -97 69 -27 106 -33 106 -16 0 6 -8 10 -18 10 -18
0 -42 18 -42 31 0 5 16 1 36 -7 l36 -15 -6 28 c-5 21 -4 24 4 13 8 -12 10 -10
11 10 0 14 3 19 6 13 3 -10 11 -8 28 5 l24 17 -77 71 c-42 40 -74 75 -70 79 4
4 29 -17 57 -46 27 -30 59 -60 72 -67 13 -7 32 -24 42 -37 16 -22 16 -24 1
-18 -14 5 -15 1 -9 -28 5 -23 4 -31 -3 -24 -6 6 -12 21 -14 34 -3 24 -4 24
-20 7 -34 -34 -22 -57 37 -72 6 -2 19 -6 30 -9 14 -4 24 1 33 16 12 19 11 24
-10 47 l-23 25 28 -18 c22 -14 33 -16 51 -7 18 8 30 7 50 -3 15 -8 24 -10 21
-5 -3 5 5 14 17 21 13 7 26 16 29 21 3 5 25 12 49 15 l43 6 -6 66 c-3 36 -8
75 -12 86 -7 20 -6 20 9 1 11 -14 16 -41 16 -88 0 -37 3 -68 6 -68 4 0 23 8
43 19 78 40 137 59 202 67 24 2 51 7 59 11 8 3 27 7 43 8 27 3 27 2 -10 -26
-21 -16 -41 -29 -45 -29 -5 0 -16 -7 -25 -16 -10 -8 -40 -31 -67 -51 -36 -26
-45 -38 -35 -44 8 -5 10 -9 4 -10 -5 0 -19 -3 -30 -6 -11 -3 -43 -7 -70 -8
-28 -2 -75 -10 -105 -18 -30 -8 -66 -18 -80 -21 -14 -3 -35 -14 -46 -24 -28
-26 -59 -42 -83 -42 -19 0 -81 -75 -81 -99 0 -6 -6 -11 -13 -11 -24 0 -58 -36
-51 -54 5 -12 2 -15 -10 -10 -20 8 -56 -34 -48 -56 3 -8 2 -12 -3 -8 -4 4 -14
1 -21 -7 -8 -7 -19 -16 -26 -19 -10 -5 -10 -7 0 -12 18 -8 -2 -31 -44 -49 -28
-11 -32 -18 -30 -42 4 -31 -9 -54 -27 -48 -15 6 -73 -115 -83 -170 -4 -22 -14
-53 -22 -70 -17 -32 -22 -79 -25 -245 -2 -58 -7 -112 -12 -120 -5 -8 -11 -23
-12 -33 -2 -11 -10 -28 -18 -40 -22 -32 -18 -41 10 -23 34 22 45 13 46 -37 0
-23 3 -36 6 -29 2 6 8 12 13 12 13 0 21 -32 11 -44 -6 -7 -6 -18 -1 -25 6 -11
11 -10 21 6 10 17 15 19 26 8 18 -18 16 -27 -7 -52 l-19 -22 30 -6 c20 -5 38
-2 54 9 45 30 50 16 9 -23 -23 -20 -51 -56 -61 -78 l-20 -41 33 10 c22 6 48 5
73 -2 59 -16 91 0 91 45 0 23 -8 44 -21 58 -24 24 -59 78 -59 89 0 4 11 3 25
-2 28 -11 35 4 8 18 -12 7 0 9 42 8 36 -1 60 -6 63 -14 2 -7 10 -12 17 -12 20
0 24 -20 21 -106 -1 -49 -7 -79 -14 -82 -7 -2 -12 -17 -12 -32 0 -16 -10 -40
-22 -53 -13 -14 -30 -35 -39 -49 -32 -47 -203 -112 -234 -88 -22 16 -73 28
-86 19 -15 -9 -59 26 -59 47 0 8 -6 11 -14 8 -9 -4 -19 9 -31 40 -22 57 -14
130 16 162 12 12 18 27 15 33 -4 5 7 18 24 28 17 9 29 22 27 27 -5 14 -66 28
-92 22 -29 -7 -37 -48 -17 -77 14 -20 14 -23 -4 -37 -13 -10 -15 -16 -6 -19 6
-3 12 -9 12 -14 0 -6 -5 -7 -12 -3 -8 5 -9 -14 -5 -77 12 -151 19 -183 42
-220 17 -27 26 -61 34 -145 11 -101 20 -148 40 -199 8 -20 24 -65 43 -120 22
-64 48 -112 71 -131 15 -13 31 -49 46 -104 12 -46 33 -97 46 -114 28 -38 105
-184 105 -200 0 -7 23 -34 51 -61 28 -28 57 -63 65 -78 8 -15 26 -32 39 -37
18 -7 25 -19 30 -55 7 -42 5 -62 -12 -125 -3 -14 -6 -36 -5 -50 0 -14 3 -65 6
-115 l4 -90 36 -24 c20 -13 36 -33 36 -43 0 -10 7 -18 15 -18 8 0 16 -6 16
-12 1 -7 2 -20 3 -28 0 -8 9 -14 18 -12 11 2 20 -6 24 -22 6 -25 43 -56 66
-56 21 0 47 -37 41 -58 -6 -26 28 -50 79 -55 20 -2 43 -8 50 -14 36 -29 128
-61 128 -45 0 4 -22 33 -50 63 -27 29 -50 57 -50 61 0 4 -9 10 -20 13 -11 3
-20 13 -20 21 0 8 -9 14 -20 14 -10 0 -24 9 -30 19 -9 18 -1 24 70 62 80 43
140 89 140 108 0 6 -5 11 -11 11 -5 0 -7 -4 -4 -10 3 -5 1 -10 -4 -10 -15 0
-14 12 5 38 17 24 12 42 -12 42 -9 0 -22 6 -30 14 -16 16 -19 30 -5 21 5 -3
12 -1 16 4 3 6 -14 29 -37 52 -24 23 -42 46 -40 52 1 5 -6 23 -16 41 -21 36
-34 79 -21 70 13 -8 11 7 -6 36 -8 14 -14 37 -15 52 0 16 -9 37 -20 48 -11 11
-20 26 -21 32 0 7 -5 3 -11 -9 -12 -26 -17 -27 -38 -12 -13 9 -13 9 0 7 9 -2
16 -1 16 2 0 3 6 15 12 27 11 19 9 22 -10 25 -13 2 -24 11 -26 20 -3 13 2 16
23 12 17 -3 24 -1 20 6 -3 5 -15 10 -26 10 -22 0 -24 10 -6 29 7 9 7 11 1 8
-14 -8 -27 34 -18 56 8 22 -12 30 -30 11 -15 -14 -16 -13 -16 15 0 22 4 29 14
25 8 -3 16 4 20 18 10 39 7 47 -21 50 -18 2 -29 10 -32 23 -3 17 -1 18 13 6
14 -12 19 -11 31 5 8 10 17 27 20 36 5 13 14 15 40 11 23 -4 35 -2 35 6 0 6
11 11 25 11 15 0 25 -6 25 -15 0 -8 6 -12 14 -9 7 3 16 -2 19 -10 4 -9 17 -16
31 -16 15 0 25 -7 29 -19 3 -14 0 -17 -14 -14 -29 8 -23 -16 7 -27 19 -7 31
-7 40 1 8 6 26 9 40 6 20 -3 28 0 31 14 9 32 42 6 35 -27 -3 -17 -1 -25 5 -21
6 4 16 -5 23 -18 7 -14 20 -25 29 -25 9 0 31 -9 49 -20 17 -11 32 -17 32 -15
0 3 14 -1 30 -10 17 -9 30 -22 30 -30 0 -14 37 -31 47 -21 4 3 -1 6 -10 6 -10
0 -17 4 -17 10 0 6 9 6 24 0 13 -5 26 -7 29 -4 2 2 16 0 30 -5 16 -6 27 -6 29
0 2 5 19 1 38 -10 19 -10 54 -22 76 -25 33 -6 44 -14 57 -39 14 -28 16 -29 16
-9 1 12 5 22 10 22 9 0 24 -33 26 -55 0 -5 10 -14 22 -20 16 -7 21 -15 17 -29
-4 -12 -2 -16 5 -12 6 4 11 1 11 -8 0 -8 -5 -18 -11 -21 -13 -8 -6 -30 9 -31
7 -1 15 -2 20 -3 4 -1 -6 -13 -23 -27 -16 -14 -25 -23 -19 -20 7 3 17 -1 24
-9 11 -13 10 -14 -4 -9 -9 4 -16 1 -16 -6 0 -10 -3 -10 -15 0 -12 10 -16 9
-22 -6 -3 -11 -12 -23 -19 -27 -11 -6 -10 -12 4 -27 9 -11 24 -20 33 -20 23 0
43 -48 28 -66 -9 -11 -4 -17 27 -31 22 -9 42 -16 47 -15 24 6 -19 -104 -56
-143 -27 -27 -157 -202 -157 -210 0 -4 -20 -33 -45 -65 -25 -32 -45 -62 -45
-66 0 -3 -22 -50 -49 -103 -27 -53 -61 -125 -75 -160 -24 -55 -25 -65 -13 -80
8 -9 17 -27 21 -41 3 -14 43 -63 88 -110 45 -47 107 -112 136 -145 64 -71 99
-94 138 -89 27 3 27 3 4 -4 -21 -7 -22 -10 -10 -18 17 -10 70 -79 70 -90 0 -4
21 -38 47 -76 l47 -68 330 1 c182 0 346 3 364 6 24 4 34 12 38 30 9 33 -19 91
-50 103 -27 10 -65 80 -72 137 -3 21 -14 54 -25 74 -18 34 -17 69 1 69 4 0 27
16 51 35 24 19 49 35 56 35 6 0 18 8 25 18 7 10 27 27 43 38 33 21 122 86 145
108 8 7 29 22 45 32 17 10 36 24 43 31 7 7 34 23 60 36 94 49 105 56 116 77
11 22 147 100 173 100 7 0 13 5 13 10 0 6 4 10 9 10 5 0 35 16 67 35 32 19 83
44 113 56 31 11 63 26 71 33 8 8 27 16 41 19 30 7 79 44 79 58 0 6 -4 8 -9 5
-4 -3 -25 4 -47 14 -62 32 -76 24 -55 -33 11 -27 0 -36 -48 -43 -13 -2 -27 -7
-30 -11 -3 -4 -15 -8 -26 -8 -11 0 -36 -8 -55 -19 -19 -12 -46 -20 -60 -19
-14 2 -19 0 -12 -3 24 -11 12 -26 -17 -21 -19 4 -31 2 -34 -6 -3 -8 -9 -6 -19
6 -12 17 -16 17 -50 3 -20 -9 -40 -21 -43 -27 -4 -5 -13 -8 -21 -5 -8 3 -14 0
-14 -6 0 -7 -4 -7 -14 1 -11 10 -15 8 -18 -6 -4 -15 -8 -12 -24 14 -10 18 -24
33 -31 33 -6 0 -14 14 -18 30 -4 17 -13 37 -21 45 -14 13 -12 18 18 45 l33 31
17 -21 c17 -21 17 -21 37 -1 10 10 17 22 14 24 -7 7 29 47 43 47 7 0 14 7 18
15 3 8 9 15 13 14 24 -4 43 3 43 14 0 19 41 38 69 32 14 -2 31 1 38 7 10 8 17
7 28 -8 9 -12 14 -14 15 -6 0 9 7 11 19 7 11 -3 22 -1 25 4 12 18 81 -2 140
-41 33 -21 68 -38 78 -38 9 0 28 -12 41 -26 24 -26 25 -26 59 -10 30 14 34 21
30 46 -3 24 3 35 34 62 20 18 43 33 50 33 26 0 26 15 0 26 -41 19 -38 45 13
108 20 25 72 116 115 202 43 87 89 169 101 183 13 15 25 46 29 74 6 49 45 136
69 156 24 19 49 96 37 111 -8 10 -8 19 1 33 21 34 -1 69 -48 74 -24 4 -44 0
-54 -8 -8 -8 -27 -14 -41 -14 -14 0 -28 -7 -32 -15 -3 -9 -18 -15 -36 -15 -16
0 -30 -4 -30 -10 0 -5 -14 -10 -30 -10 -18 0 -33 -6 -36 -15 -4 -10 -14 -13
-28 -9 -13 3 -27 -1 -34 -9 -7 -8 -22 -12 -38 -9 -17 3 -29 -1 -38 -13 -9 -13
-15 -15 -20 -7 -9 15 -49 15 -63 1 -8 -8 -17 -8 -31 0 -10 6 -23 7 -27 3 -6
-6 -37 -8 -175 -11 -29 -1 -196 8 -285 14 -49 4 -100 6 -112 6 -12 0 -34 4
-49 9 -15 6 -31 7 -38 2 -6 -5 -22 -5 -36 -1 l-25 8 25 -1 c14 -1 33 2 43 7 9
4 26 5 36 2 11 -2 38 -1 60 3 23 4 44 3 47 -1 3 -5 20 -9 39 -9 19 0 36 -4 40
-10 4 -6 14 -5 29 1 16 8 29 8 42 1 13 -7 26 -7 37 -1 11 6 24 6 36 -1 14 -7
27 -7 45 1 17 8 30 9 38 2 13 -10 114 -10 124 0 3 3 17 2 31 -4 16 -6 31 -5
44 1 13 7 25 7 38 1 14 -8 23 -6 36 9 16 18 20 18 34 6 13 -12 19 -12 34 -2 9
7 28 11 41 9 13 -3 27 0 30 6 4 6 18 11 31 11 13 0 27 5 30 10 3 6 16 10 29
10 13 0 31 9 41 20 16 18 17 25 7 54 -7 18 -12 83 -12 144 0 151 15 130 -307
436 l-82 77 -50 -5 c-44 -5 -54 -2 -104 31 -46 30 -56 42 -61 72 -9 55 -7 117
4 147 8 19 8 29 0 34 -11 7 13 79 42 122 10 14 18 32 18 40 0 17 22 78 35 98
14 22 35 82 35 103 0 9 4 17 10 17 5 0 13 12 16 28 4 15 10 32 13 37 4 6 8 24
10 40 2 17 7 35 11 40 12 14 42 136 36 143 -3 3 -1 11 5 18 6 8 9 21 5 29 -3
8 -2 15 2 15 4 0 8 35 10 77 2 43 7 82 11 88 4 5 8 54 9 108 0 74 -3 101 -14
112 -14 13 -14 17 0 31 9 8 14 20 11 25 -3 5 -8 43 -10 84 -3 42 -8 81 -12 88
-4 6 -7 27 -6 46 0 19 -6 49 -13 67 -17 40 -17 47 -3 38 16 -10 2 35 -22 68
-21 30 -24 48 -9 48 15 0 12 36 -5 50 -8 7 -15 9 -16 4 -1 -10 -17 46 -26 89
-3 15 -10 27 -15 27 -5 0 -7 4 -3 9 3 5 1 12 -5 16 -5 3 -10 16 -10 27 0 12
-3 19 -6 15 -12 -12 -33 17 -22 31 7 8 7 12 -1 12 -6 0 -17 11 -23 25 -6 14
-18 25 -25 25 -8 0 -12 4 -9 8 3 5 -6 20 -20 35 -13 14 -24 31 -24 37 0 5 -4
10 -9 10 -5 0 -13 9 -16 20 -3 11 -11 20 -17 20 -18 0 -48 42 -49 69 0 14 -3
20 -6 14 -7 -18 -23 -16 -23 2 0 9 -8 19 -17 22 -25 10 -193 179 -193 194 0 7
-3 10 -6 7 -3 -4 -17 0 -31 7 -15 8 -31 11 -36 8 -6 -3 -7 -1 -3 6 5 7 -4 15
-24 23 -22 7 -28 13 -19 18 8 5 -2 15 -31 29 -24 12 -49 21 -56 21 -7 0 -14 4
-16 9 -1 5 -10 11 -18 13 -8 2 -19 12 -25 23 -6 11 -21 21 -33 23 -12 2 -22 8
-22 13 0 6 -5 7 -10 4 -6 -3 -17 0 -25 7 -36 32 -45 38 -65 38 -11 0 -20 6
-20 14 0 10 -16 17 -47 22 -63 8 -146 30 -172 43 -11 6 -33 11 -48 11 -16 0
-35 6 -42 13 -11 10 -14 10 -18 0 -7 -19 -24 -16 -21 4 2 13 -6 16 -49 17 -29
1 -53 -2 -53 -7 0 -4 -12 -1 -27 7 -16 8 -37 11 -48 6 -11 -3 -31 -3 -45 1
-14 4 -21 7 -17 8 5 1 2 8 -7 16 -8 8 -16 14 -18 14 -2 -1 -16 -4 -33 -6z m40
-683 c3 -6 -1 -7 -9 -4 -18 7 -21 14 -7 14 6 0 13 -4 16 -10z m36 -27 c13 -16
12 -17 -3 -4 -10 7 -18 15 -18 17 0 8 8 3 21 -13z m41 -29 c-5 -9 -7 -26 -5
-38 4 -17 3 -18 -6 -6 -10 13 -12 13 -21 0 -5 -8 -10 -11 -10 -7 0 10 39 67
46 67 3 0 1 -7 -4 -16z m-112 -19 c0 -6 -6 -12 -12 -12 -7 0 -26 -4 -43 -8
-27 -8 -29 -7 -16 8 7 9 17 15 21 12 5 -3 11 -2 14 3 8 13 36 10 36 -3z m-125
-56 c-5 -7 12 -10 51 -9 65 2 107 -7 98 -21 -3 -5 10 -9 28 -9 26 0 37 6 44
23 6 12 9 16 7 9 -5 -24 16 -50 48 -57 17 -4 28 -9 25 -12 -3 -4 2 -12 12 -20
9 -8 11 -12 5 -8 -7 3 -13 1 -13 -4 0 -7 23 -11 55 -11 52 0 60 -5 56 -32 0
-4 6 -5 14 -2 8 4 15 1 15 -5 0 -6 7 -11 15 -11 8 0 15 4 15 9 0 13 -30 42
-38 37 -4 -2 -12 6 -19 20 l-11 23 32 -23 c17 -13 43 -26 59 -30 15 -3 27 -11
27 -17 0 -8 -5 -7 -15 1 -21 18 -29 6 -14 -18 7 -12 33 -28 57 -38 25 -9 52
-24 62 -33 91 -87 115 -104 178 -125 91 -31 114 -46 108 -70 -3 -11 6 -33 22
-54 15 -19 33 -51 40 -71 17 -43 21 -133 7 -127 -5 1 -9 14 -8 27 4 43 -8 99
-20 96 -7 -1 -11 5 -9 15 5 31 -173 158 -222 158 -9 0 -19 6 -22 14 -3 8 -33
24 -67 36 -34 13 -56 25 -49 28 7 2 20 -2 29 -10 15 -12 15 -11 5 9 -9 16 -9
22 1 26 13 4 -112 67 -135 67 -7 0 -23 7 -35 15 -12 9 -26 15 -30 14 -23 -4
-43 2 -40 13 1 6 -6 14 -15 16 -13 2 -16 -1 -12 -13 6 -15 1 -14 -34 4 -23 12
-52 21 -66 21 -13 0 -31 6 -39 14 -7 8 -30 14 -51 14 -20 0 -43 6 -51 12 -13
11 -14 10 -9 -4 3 -9 16 -16 27 -16 13 0 17 -4 12 -9 -6 -5 -62 -12 -125 -15
-63 -3 -125 -9 -137 -12 -15 -4 -23 -2 -23 6 0 8 -9 10 -27 6 -14 -4 -29 -3
-32 2 -3 5 -15 6 -26 1 -18 -7 -18 -8 5 -8 36 -2 4 -21 -35 -21 -21 0 -26 -3
-16 -9 10 -6 4 -11 -20 -19 -80 -25 -120 -32 -135 -24 -12 7 -6 12 27 25 27
11 46 13 54 7 7 -6 20 -1 38 16 27 25 36 41 16 29 -6 -4 -31 -9 -57 -11 -25
-3 -49 -8 -52 -13 -3 -4 -20 -16 -37 -26 -35 -20 -43 -35 -18 -35 8 0 12 -6 9
-13 -2 -7 -13 -13 -23 -13 -11 0 -17 6 -14 13 6 16 -21 17 -50 1 -12 -6 -40
-26 -61 -45 -46 -38 -56 -41 -56 -14 0 18 56 71 74 71 7 0 14 5 59 45 15 14
46 28 68 31 22 4 47 13 54 21 9 8 24 11 38 8 21 -6 25 -2 30 25 4 18 11 29 17
25 6 -4 8 -15 5 -26 -8 -24 22 -26 51 -4 10 8 27 15 37 15 19 0 160 71 165 83
2 4 12 7 22 7 10 0 22 5 25 10 3 6 11 10 16 10 6 0 7 -5 4 -11z m322 -45 c-3
-3 -12 -4 -19 -1 -8 3 -5 6 6 6 11 1 17 -2 13 -5z m-754 -68 c-25 -32 -43 -45
-43 -31 0 9 63 76 67 71 3 -3 -8 -21 -24 -40z m-463 4 c0 -5 -5 -10 -11 -10
-5 0 -7 5 -4 10 3 6 8 10 11 10 2 0 4 -4 4 -10z m10 -44 c0 -2 -7 -9 -15 -16
-13 -11 -14 -10 -9 4 5 14 24 23 24 12z m-403 -118 c-3 -8 -6 -5 -6 6 -1 11 2
17 5 13 3 -3 4 -12 1 -19z m1862 -14 c14 -12 -19 -1 -35 12 -18 14 -18 14 6 3
14 -6 27 -13 29 -15z m-1572 -9 c-4 -8 -11 -15 -17 -15 -6 0 -6 7 2 20 14 22
24 19 15 -5z m2467 -11 c22 -21 3 -56 -27 -52 -25 3 -34 32 -17 53 16 19 25
19 44 -1z m-189 -59 c-59 -23 -195 -61 -195 -55 0 8 164 59 190 58 8 0 11 -1
5 -3z m-1264 -80 c63 -9 153 -31 225 -56 208 -71 236 -87 506 -280 31 -22 62
-47 69 -55 9 -11 14 -12 20 -3 9 14 53 -31 104 -104 21 -32 35 -44 39 -35 3 7
3 3 1 -9 -3 -12 -1 -24 4 -27 5 -4 17 -31 26 -61 21 -75 45 -76 44 -2 -1 30 3
62 8 73 11 21 7 44 -8 44 -5 0 -9 -8 -9 -17 0 -10 -11 4 -25 31 -14 27 -25 57
-25 65 1 9 10 -2 22 -24 25 -50 24 -48 37 -40 8 4 8 12 1 26 -7 11 -7 19 -1
19 13 0 -2 53 -17 58 -7 2 -10 -2 -6 -12 3 -9 3 -16 0 -16 -7 0 -35 61 -37 77
-1 13 -21 33 -28 29 -4 -3 -13 5 -21 17 -12 20 -12 21 3 8 21 -17 22 -7 1 24
-22 34 -4 32 33 -4 17 -15 36 -30 43 -33 7 -2 13 -16 13 -32 0 -15 6 -30 13
-33 7 -3 16 -21 20 -41 4 -21 15 -54 25 -74 23 -44 24 -115 4 -142 -8 -11 -15
-15 -15 -9 0 7 5 15 10 18 12 8 13 95 1 114 -6 9 -11 -12 -16 -63 -5 -55 -4
-80 5 -91 8 -9 8 -15 2 -15 -6 0 -9 -19 -7 -47 2 -34 0 -42 -6 -30 -6 9 -14
17 -18 17 -13 0 14 -83 27 -88 7 -2 12 -8 12 -13 0 -6 -4 -7 -10 -4 -5 3 -10
1 -10 -4 0 -6 4 -11 9 -11 14 0 24 -52 11 -60 -9 -6 -9 -13 -1 -29 7 -11 12
-38 13 -58 0 -21 5 -44 11 -50 6 -9 6 -13 -2 -13 -19 0 -12 -42 10 -67 20 -20
20 -23 5 -29 -19 -7 -21 -37 -3 -56 39 -39 102 -129 119 -168 34 -78 44 -133
46 -259 1 -67 5 -128 9 -134 12 -19 14 -47 3 -47 -6 0 -4 -13 5 -30 9 -18 13
-40 9 -52 -4 -13 -2 -18 4 -14 6 3 14 1 18 -5 4 -8 3 -9 -4 -5 -8 5 -12 0 -12
-13 0 -11 5 -23 10 -26 6 -4 8 -11 5 -16 -4 -5 -1 -9 4 -9 6 0 11 -4 11 -10 0
-13 -62 25 -88 55 -20 23 -50 36 -38 16 3 -5 -2 -15 -11 -22 -14 -12 -16 -12
-9 0 5 8 3 17 -5 22 -12 8 -12 10 0 18 17 11 25 51 10 51 -5 0 -7 -4 -4 -10 3
-5 1 -10 -4 -10 -6 0 -11 5 -11 10 0 6 -10 10 -22 11 -13 0 -18 3 -11 5 7 3 9
12 6 20 -7 19 -23 18 -23 -3 0 -9 -3 -13 -7 -10 -3 4 -12 -1 -19 -11 -10 -14
-15 -15 -25 -4 -10 10 -10 12 0 12 7 0 9 5 6 11 -4 6 -13 8 -19 6 -9 -4 -12 7
-12 36 1 40 0 42 -44 58 -34 12 -46 22 -48 40 -3 24 -2 24 13 4 16 -20 16 -20
34 2 14 16 21 19 30 10 15 -15 14 6 -1 22 -11 10 -9 12 7 9 12 -2 19 -10 17
-20 -1 -9 6 -19 18 -23 11 -3 20 -11 20 -16 0 -5 5 -9 11 -9 7 0 5 10 -5 25
-16 24 -11 31 17 26 5 -1 6 3 2 9 -3 6 -11 7 -17 4 -6 -4 -8 -2 -4 4 3 5 0 13
-6 16 -7 3 -3 3 10 0 29 -7 28 -3 -14 40 -38 39 -40 55 -5 36 24 -12 28 1 6
20 -8 7 -15 16 -15 21 0 5 7 6 15 3 10 -4 15 0 15 14 0 12 -9 23 -20 27 -11 3
-19 9 -18 13 6 20 -13 72 -26 72 -8 0 -23 12 -34 27 l-20 28 2 -30 c2 -17 7
-38 11 -47 5 -12 3 -18 -6 -18 -12 0 -12 -2 -1 -9 12 -7 12 -12 1 -30 -8 -11
-19 -21 -24 -21 -17 0 -35 22 -35 42 0 20 -47 74 -57 65 -5 -5 54 -139 78
-177 5 -8 12 -22 15 -32 3 -9 17 -19 30 -22 21 -6 22 -9 12 -26 -17 -26 -35
-32 -50 -16 -14 13 -50 18 -42 5 2 -4 0 -10 -6 -14 -11 -7 -14 4 -11 51 1 20
-4 34 -13 37 -11 4 -13 1 -9 -11 5 -13 4 -15 -8 -6 -14 10 -55 11 -65 1 -3 -3
11 -10 30 -17 37 -12 51 -32 17 -23 -13 3 -21 -2 -26 -16 -7 -23 -25 -29 -25
-8 0 17 -81 87 -101 87 -17 0 -49 30 -33 30 5 0 1 5 -9 11 -18 11 -18 11 0 24
14 9 118 15 118 6 0 -11 57 -6 66 5 6 7 15 11 20 8 5 -3 9 -1 9 4 0 5 -17 14
-37 20 -25 7 -29 10 -11 8 25 -3 26 -2 11 20 -8 13 -25 26 -36 30 -12 4 -41
20 -65 36 -24 17 -61 31 -85 34 -23 2 -48 7 -55 9 -7 2 -23 0 -37 -5 -20 -8
-25 -6 -31 12 -6 19 -8 20 -18 6 -9 -12 -17 -13 -29 -7 -11 6 -24 6 -36 -1
-11 -5 -27 -7 -35 -4 -9 3 -16 1 -16 -6 0 -6 -4 -9 -9 -6 -8 5 -26 -24 -19
-29 32 -21 80 -44 103 -49 114 -26 128 -36 75 -55 -17 -5 -28 -6 -25 -1 3 5 0
12 -6 16 -8 5 -9 3 -4 -6 6 -10 2 -11 -18 -6 -14 3 -29 2 -32 -4 -11 -17 -45
-11 -46 8 0 9 -3 12 -5 5 -3 -7 -11 -10 -19 -7 -8 3 -20 -4 -27 -15 -12 -19
-13 -19 -32 -3 -11 9 -16 11 -12 5 4 -7 2 -13 -4 -13 -6 0 -8 -5 -4 -11 4 -8
-3 -9 -24 -4 -18 3 -40 1 -52 -5 -24 -13 -69 0 -102 28 -10 9 -18 10 -18 4 0
-6 6 -12 13 -15 6 -2 8 -8 4 -13 -10 -10 -47 31 -47 51 0 7 -12 15 -26 18 -20
4 -27 -1 -35 -21 -9 -24 -10 -24 -23 -6 -8 10 -12 22 -10 26 2 4 -6 14 -18 22
-25 18 -39 21 -35 7 1 -5 -2 -9 -8 -9 -5 -1 -9 8 -8 18 2 13 -2 17 -12 14 -8
-4 -15 -1 -15 4 0 6 10 14 23 18 12 3 30 14 41 23 10 9 19 15 20 13 0 -2 8 -1
16 1 94 30 193 48 265 48 30 1 58 5 61 10 3 5 18 9 33 9 34 0 44 9 29 27 -17
21 -5 25 80 25 87 -1 221 -31 286 -64 l40 -20 -16 23 c-8 13 -25 25 -37 25
-11 1 -40 17 -63 36 -48 39 -100 68 -121 68 -8 0 -26 9 -40 20 -27 22 -67 25
-113 11 -16 -5 -45 -12 -64 -15 l-34 -6 29 30 c38 39 74 57 133 65 26 4 62 12
79 18 28 9 36 8 55 -10 35 -32 84 -53 145 -63 58 -10 65 -15 137 -103 21 -26
45 -47 53 -47 13 0 13 -3 3 -15 -10 -13 -9 -15 9 -15 12 0 20 -4 17 -9 -3 -5
4 -11 15 -14 12 -3 18 -10 15 -16 -7 -10 32 -37 40 -28 3 2 -7 19 -22 36 -20
24 -24 34 -15 45 9 11 6 17 -19 27 -22 11 -28 18 -24 33 4 12 2 16 -5 12 -6
-4 -9 -1 -5 7 3 9 -3 16 -15 20 -13 3 -19 11 -15 20 3 8 -2 17 -10 20 -12 5
-14 12 -7 31 6 13 8 26 5 28 -2 3 3 21 11 41 22 54 20 149 -4 171 -25 23 -52
14 -86 -26 -22 -26 -25 -37 -19 -74 l6 -44 -32 16 c-27 14 -31 20 -25 42 3 14
16 37 28 52 29 34 54 109 40 118 -5 4 -16 24 -23 44 -8 20 -17 35 -22 32 -4
-3 -18 2 -31 11 -13 8 -43 18 -68 21 -38 5 -51 1 -103 -30 -33 -20 -67 -36
-76 -36 -8 0 -26 -7 -38 -16 -12 -8 -26 -13 -31 -10 -5 4 -11 1 -13 -5 -3 -8
-12 -9 -31 -3 -26 9 -26 10 -12 37 24 46 -4 31 -71 -39 -55 -57 -63 -69 -57
-92 3 -15 11 -30 17 -34 13 -9 18 -76 6 -83 -5 -3 -11 -1 -15 5 -7 12 -26 14
-24 3 4 -22 -2 -43 -11 -43 -5 0 -11 8 -11 18 -1 15 -2 15 -6 -1 -3 -11 -11
-16 -19 -13 -8 3 -14 1 -14 -5 0 -6 -5 -7 -12 -3 -8 5 -9 2 -5 -9 3 -10 2 -17
-3 -17 -6 0 -10 5 -10 10 0 6 -5 10 -11 10 -5 0 -7 -4 -4 -10 8 -13 -8 -13
-22 1 -8 8 -17 5 -32 -10 -12 -12 -21 -16 -21 -11 0 18 -18 10 -23 -10 -6 -22
-46 -28 -48 -7 0 6 -5 0 -11 -15 -5 -16 -14 -28 -19 -28 -5 0 -9 -10 -9 -22 0
-16 -3 -19 -11 -11 -8 8 -8 17 0 31 20 37 11 48 -14 17 -13 -16 -30 -37 -37
-45 -7 -8 -12 -25 -10 -38 2 -13 -1 -36 -7 -52 -6 -18 -6 -30 0 -32 5 -2 10
-20 11 -40 1 -27 6 -39 20 -44 10 -3 18 -10 18 -16 0 -5 -6 -8 -14 -5 -8 3
-17 0 -20 -8 -2 -7 2 -16 10 -19 15 -6 20 -46 5 -46 -4 0 -26 12 -47 26 -28
19 -34 21 -21 7 21 -24 22 -34 3 -27 -8 3 -16 -4 -20 -20 -3 -14 -12 -26 -20
-26 -21 0 -39 28 -33 50 3 11 1 22 -4 25 -4 3 -6 20 -3 38 l6 32 -19 -23 c-10
-13 -21 -21 -24 -18 -6 7 -2 144 5 163 3 7 4 13 2 13 -8 0 -51 -95 -48 -106 1
-7 -5 -15 -14 -18 -14 -5 -16 -1 -10 26 3 18 12 36 19 41 9 6 8 7 -3 4 -22 -6
-52 12 -46 29 7 17 -6 18 -22 2 -9 -9 -12 -8 -12 6 0 16 -2 17 -17 5 -15 -13
-16 -12 -11 9 4 12 2 22 -3 22 -5 0 -9 7 -9 15 0 21 -13 19 -28 -6 -10 -16
-17 -18 -25 -10 -8 8 -14 7 -24 0 -17 -15 -16 -8 2 27 14 26 13 29 -2 33 -10
2 -19 -2 -21 -9 -3 -9 -7 -9 -13 1 -6 10 -10 5 -15 -18 -3 -18 -17 -39 -30
-48 -26 -17 -31 -6 -12 25 16 24 6 35 -20 21 -14 -7 -18 -17 -15 -31 4 -14 0
-20 -10 -20 -11 0 -19 -13 -23 -37 -7 -35 -8 -36 -17 -15 -8 18 -6 29 11 52
12 16 22 34 22 40 0 15 -20 12 -20 -2 -1 -7 -9 -3 -20 10 -14 17 -25 21 -44
16 -21 -5 -25 -3 -20 10 4 11 1 16 -10 16 -10 0 -16 -9 -16 -25 0 -14 -2 -25
-5 -25 -3 0 -21 18 -41 40 -36 40 -64 52 -64 27 0 -21 -39 -17 -55 6 -8 12
-15 18 -15 14 0 -4 -9 -3 -20 3 -11 6 -20 19 -20 30 0 10 -10 22 -22 26 -43
13 -46 25 -37 118 5 48 13 95 19 105 5 11 13 45 16 77 4 33 11 64 16 70 4 6 6
19 2 27 -4 10 6 29 25 49 17 18 31 37 31 41 0 4 31 50 70 101 73 98 150 176
174 176 17 0 72 60 81 89 3 11 15 23 26 26 11 4 18 13 16 20 -8 19 13 35 45
35 15 0 28 4 28 9 0 12 71 36 180 60 104 24 223 26 361 6z m853 -131 c3 -8 2
-12 -4 -9 -6 3 -10 10 -10 16 0 14 7 11 14 -7z m41 -30 c16 -25 16 -25 -4 -14
-12 6 -21 17 -21 25 0 21 5 19 25 -11z m-1585 -5 c0 -6 -4 -7 -10 -4 -5 3 -10
11 -10 16 0 6 5 7 10 4 6 -3 10 -11 10 -16z m-580 -9 c0 -5 -2 -10 -4 -10 -3
0 -8 5 -11 10 -3 6 -1 10 4 10 6 0 11 -4 11 -10z m2364 -556 c3 -8 2 -12 -4
-9 -6 3 -10 10 -10 16 0 14 7 11 14 -7z m33 -106 c-3 -8 -6 -5 -6 6 -1 11 2
17 5 13 3 -3 4 -12 1 -19z m18 -117 c4 -47 -2 -51 -28 -16 -16 22 -16 26 -3
31 9 3 16 13 16 22 0 30 10 4 15 -37z m-805 35 c0 -2 3 -12 6 -21 5 -13 2 -16
-17 -13 -42 6 -54 38 -14 38 14 0 25 -2 25 -4z m857 -48 c-3 -8 -6 -5 -6 6 -1
11 2 17 5 13 3 -3 4 -12 1 -19z m-2067 -153 c11 -13 8 -15 -14 -15 -25 0 -33
10 -19 23 10 11 19 8 33 -8z m120 -35 c0 -13 -28 -25 -38 -16 -3 4 0 11 8 16
20 13 30 12 30 0z m10 -25 c-7 -8 -17 -15 -22 -15 -6 0 -5 7 2 15 7 8 17 15
22 15 6 0 5 -7 -2 -15z m637 -71 c-9 -9 -28 6 -21 18 4 6 10 6 17 -1 6 -6 8
-13 4 -17z m476 14 c3 -10 -11 -13 -54 -13 -63 -1 -68 3 -17 15 50 12 65 11
71 -2z m-636 -175 c5 -13 -25 -26 -38 -17 -6 3 -5 11 2 20 13 16 31 14 36 -3z
m1323 -17 c0 -3 -4 -8 -10 -11 -5 -3 -10 -1 -10 4 0 6 5 11 10 11 6 0 10 -2
10 -4z m-1319 -39 c-1 -12 -15 -9 -19 4 -3 6 1 10 8 8 6 -3 11 -8 11 -12z
m344 -35 c-6 -7 -35 18 -35 31 0 5 9 2 20 -8 11 -10 18 -20 15 -23z m329 3 c3
-9 0 -15 -9 -15 -8 0 -15 7 -15 15 0 8 4 15 9 15 5 0 11 -7 15 -15z m96 5 c0
-12 -28 -25 -36 -17 -9 9 6 27 22 27 8 0 14 -5 14 -10z m127 -32 c-3 -8 -6 -5
-6 6 -1 11 2 17 5 13 3 -3 4 -12 1 -19z m-367 -2 c0 -9 -30 -14 -35 -6 -4 6 3
10 14 10 12 0 21 -2 21 -4z m410 -61 c0 -7 -30 -13 -34 -7 -3 4 4 9 15 9 10 1
19 0 19 -2z m70 -50 c0 -8 -2 -15 -4 -15 -2 0 -6 7 -10 15 -3 8 -1 15 4 15 6
0 10 -7 10 -15z m258 -127 c-6 -18 -28 -21 -28 -4 0 9 7 16 16 16 9 0 14 -5
12 -12z m158 -190 c12 -14 13 -18 3 -10 -9 6 -19 9 -22 5 -4 -3 -7 1 -7 10 0
22 3 21 26 -5z m225 -35 c13 -16 12 -17 -3 -4 -10 7 -18 15 -18 17 0 8 8 3 21
-13z m-106 -13 c3 -5 2 -10 -4 -10 -5 0 -13 5 -16 10 -3 6 -2 10 4 10 5 0 13
-4 16 -10z m51 -31 c4 -8 0 -9 -15 -4 -13 4 -21 2 -21 -5 0 -6 -5 -8 -11 -4
-8 4 -7 9 2 15 19 12 37 11 45 -2z m24 -205 c0 -2 -9 0 -20 6 -11 6 -20 13
-20 16 0 2 9 0 20 -6 11 -6 20 -13 20 -16z m-43 -26 c-3 -8 -6 -5 -6 6 -1 11
2 17 5 13 3 -3 4 -12 1 -19z m-2087 -347 c0 -12 -20 -25 -27 -18 -7 7 6 27 18
27 5 0 9 -4 9 -9z m-317 -46 c4 -8 2 -17 -3 -20 -6 -4 -10 3 -10 14 0 25 6 27
13 6z m41 -190 c3 -8 1 -15 -4 -15 -6 0 -10 7 -10 15 0 8 2 15 4 15 2 0 6 -7
10 -15z m981 -326 c-7 -10 -35 -1 -35 11 0 5 9 6 20 3 11 -3 17 -9 15 -14z
m828 -49 c-13 -5 -32 -24 -43 -42 -14 -23 -20 -27 -20 -15 0 23 44 67 67 66
14 0 13 -2 -4 -9z m63 -68 c18 -12 23 -40 10 -51 -9 -8 -19 -4 -35 13 -31 32
-11 63 25 38z m-65 -139 c13 -16 12 -17 -3 -4 -10 7 -18 15 -18 17 0 8 8 3 21
-13z m343 -285 c20 -29 54 -79 76 -111 22 -32 40 -62 40 -67 0 -19 -22 -20
-48 -2 -41 28 -62 34 -62 16 0 -8 -4 -13 -8 -10 -5 3 -23 8 -40 11 -26 4 -32
2 -32 -12 0 -11 -3 -14 -10 -7 -12 12 -18 73 -6 73 16 -1 46 55 36 65 -13 13
-13 49 -1 41 5 -3 12 -1 16 5 3 5 1 10 -4 10 -6 0 -11 9 -11 20 0 33 16 23 54
-32z m-868 -34 c18 -14 18 -14 -6 -3 -31 14 -36 19 -24 19 6 0 19 -7 30 -16z
m-11 -54 c3 -6 -1 -7 -9 -4 -18 7 -21 14 -7 14 6 0 13 -4 16 -10z m-483 -22
c-7 -7 -12 -8 -12 -2 0 14 12 26 19 19 2 -3 -1 -11 -7 -17z m464 -29 c8 -14
-10 -11 -32 6 -18 13 -18 14 4 8 12 -3 25 -9 28 -14z m-21 -49 c3 -5 -4 -6
-15 -3 -11 3 -22 9 -25 13 -3 5 4 6 15 3 11 -3 22 -9 25 -13z m-520 -100 c-3
-5 -11 -10 -16 -10 -6 0 -7 5 -4 10 3 6 11 10 16 10 6 0 7 -4 4 -10z m-35 -90
c0 -5 -5 -10 -11 -10 -5 0 -7 5 -4 10 3 6 8 10 11 10 2 0 4 -4 4 -10z m1015
-240 c3 -6 -1 -7 -9 -4 -18 7 -21 14 -7 14 6 0 13 -4 16 -10z m-632 -57 c-7
-2 -19 -2 -25 0 -7 3 -2 5 12 5 14 0 19 -2 13 -5z m-20 -50 c-7 -2 -19 -2 -25
0 -7 3 -2 5 12 5 14 0 19 -2 13 -5z m0 -30 c-7 -2 -19 -2 -25 0 -7 3 -2 5 12
5 14 0 19 -2 13 -5z"/>
<path d="M4398 5249 c-2 -7 -26 -13 -57 -15 -29 -1 -58 -7 -65 -14 -8 -8 -6
-9 8 -4 16 6 18 4 13 -9 -5 -14 0 -17 26 -17 42 0 99 17 108 32 6 9 11 9 24
-2 12 -10 19 -10 27 -2 9 9 9 12 -1 12 -7 0 -10 4 -7 8 3 5 0 9 -7 9 -7 0 -24
4 -38 8 -18 4 -28 2 -31 -6z"/>
<path d="M4608 5203 c7 -3 16 -2 19 1 4 3 -2 6 -13 5 -11 0 -14 -3 -6 -6z"/>
<path d="M4222 5189 c-12 -5 -22 -11 -22 -14 0 -10 37 -5 54 8 22 16 3 19 -32
6z"/>
<path d="M4410 5179 c0 -5 5 -7 10 -4 6 3 10 8 10 11 0 2 -4 4 -10 4 -5 0 -10
-5 -10 -11z"/>
<path d="M4745 5130 c3 -5 10 -10 16 -10 5 0 9 5 9 10 0 6 -7 10 -16 10 -8 0
-12 -4 -9 -10z"/>
<path d="M5077 4909 c7 -7 15 -10 18 -7 3 3 -2 9 -12 12 -14 6 -15 5 -6 -5z"/>
<path d="M5240 4854 c0 -8 5 -12 10 -9 6 4 8 11 5 16 -9 14 -15 11 -15 -7z"/>
<path d="M5795 4950 c-3 -5 -2 -10 4 -10 5 0 13 5 16 10 3 6 2 10 -4 10 -5 0
-13 -4 -16 -10z"/>
<path d="M4229 4664 c-27 -13 -49 -19 -49 -14 0 4 6 11 13 13 6 3 8 6 2 6 -5
0 -17 -4 -25 -9 -13 -8 -13 -11 1 -25 9 -9 34 -21 55 -26 21 -6 56 -14 77 -20
21 -5 48 -14 60 -21 12 -6 28 -14 36 -18 33 -15 22 -29 -21 -27 -24 1 -57 -2
-74 -6 -27 -7 -32 -5 -39 15 l-8 23 -4 -22 c-2 -13 -10 -23 -16 -24 -7 0 -31
-2 -54 -4 -23 -2 -68 -17 -100 -33 -32 -17 -74 -37 -94 -45 -20 -8 -55 -32
-78 -52 -39 -36 -40 -38 -25 -61 10 -14 26 -24 40 -24 12 0 26 -5 29 -11 7
-10 39 -8 118 7 15 3 25 9 22 14 -3 4 2 13 10 20 7 6 12 17 9 23 -2 7 16 19
45 30 64 22 87 22 94 -3 3 -14 14 -20 31 -20 14 0 26 -4 26 -10 0 -5 -5 -10
-11 -10 -19 0 1 -18 28 -25 14 -3 58 -28 97 -55 39 -27 85 -52 101 -55 l30 -6
-26 20 c-15 12 -34 32 -42 45 l-16 24 46 -26 c40 -22 51 -24 84 -15 45 12 57
6 29 -14 -11 -8 -20 -18 -20 -23 0 -10 69 5 83 19 13 13 11 85 -3 89 -5 2 -10
21 -10 43 0 21 -4 39 -9 39 -5 0 -7 8 -4 19 3 11 -2 21 -12 25 -9 3 -14 10
-10 15 3 5 1 12 -5 16 -5 3 -10 13 -10 21 0 9 -10 24 -22 35 l-23 18 29 24
c28 23 34 65 8 60 -7 -2 -12 1 -12 7 0 5 -12 20 -26 33 -25 24 -32 25 -166 24
-123 0 -145 -3 -189 -23z m147 -361 c-6 -6 -46 20 -46 30 0 4 11 0 25 -9 14
-9 24 -19 21 -21z m-371 7 c-3 -5 -12 -10 -18 -10 -7 0 -6 4 3 10 19 12 23 12
15 0z"/>
<path d="M4050 4673 c-8 -4 -21 -12 -28 -20 -7 -7 -21 -13 -31 -13 -27 0 -33
-12 -13 -26 15 -12 15 -13 -8 -14 -22 -1 -23 -2 -7 -11 21 -12 49 5 41 25 -3
8 4 16 15 19 23 6 29 -8 9 -16 -7 -3 1 -6 18 -6 40 -1 63 23 37 38 -17 10 -17
10 0 11 9 0 17 5 17 10 0 11 -26 12 -50 3z"/>
<path d="M3897 4599 c-8 -11 -21 -21 -30 -23 -17 -2 -47 -31 -47 -45 0 -6 -8
-11 -17 -11 -14 0 -15 -2 -4 -12 10 -10 15 -10 18 -1 2 7 10 11 16 9 7 -1 9
-1 5 1 -18 10 -6 25 15 20 12 -4 27 -3 33 1 12 8 54 67 54 76 0 14 -30 4 -43
-15z"/>
<path d="M5183 4362 c-13 -2 -23 -10 -23 -18 0 -17 8 -17 39 0 26 15 18 24
-16 18z"/>
<path d="M5235 4300 c3 -5 11 -10 16 -10 6 0 7 5 4 10 -3 6 -11 10 -16 10 -6
0 -7 -4 -4 -10z"/>
<path d="M5362 3846 c-9 -49 -9 -71 -1 -93 l12 -28 7 40 c5 22 5 44 2 50 -3 5
-5 28 -3 52 4 62 -4 53 -17 -21z"/>
<path d="M3500 3810 c0 -5 5 -10 10 -10 6 0 10 5 10 10 0 6 -4 10 -10 10 -5 0
-10 -4 -10 -10z"/>
<path d="M4335 3450 c-3 -5 1 -10 9 -10 9 0 16 5 16 10 0 6 -4 10 -9 10 -6 0
-13 -4 -16 -10z"/>
<path d="M5360 3190 c0 -5 5 -10 10 -10 6 0 10 5 10 10 0 6 -4 10 -10 10 -5 0
-10 -4 -10 -10z"/>
<path d="M5390 3110 c0 -5 5 -10 11 -10 5 0 7 5 4 10 -3 6 -8 10 -11 10 -2 0
-4 -4 -4 -10z"/>
<path d="M5460 3100 c0 -5 5 -10 11 -10 5 0 7 5 4 10 -3 6 -8 10 -11 10 -2 0
-4 -4 -4 -10z"/>
<path d="M5491 3083 c-1 -7 -8 -13 -17 -13 -23 0 -8 -17 21 -22 18 -4 23 -2
16 6 -4 6 -11 18 -14 26 -3 9 -6 10 -6 3z"/>
<path d="M5643 2910 c2 -11 12 -27 24 -35 19 -13 20 -12 15 11 -2 13 -13 29
-23 35 -16 8 -18 6 -16 -11z"/>
<path d="M3597 4994 c-43 -26 -76 -49 -73 -51 3 -3 20 4 38 15 18 11 57 32 86
46 28 14 52 27 52 30 0 15 -32 2 -103 -40z"/>
<path d="M3332 4928 c-16 -16 -15 -28 3 -28 8 0 15 9 15 20 0 23 -2 24 -18 8z"/>
<path d="M2776 4886 c3 -8 -3 -23 -14 -34 -21 -21 -38 -72 -23 -72 18 0 16
-35 -2 -51 -11 -9 -21 -32 -23 -55 -8 -75 -14 -118 -18 -131 -6 -14 59 -18
102 -7 32 9 27 18 -18 39 -36 16 -72 45 -56 45 3 0 29 -12 57 -27 37 -20 53
-25 56 -15 3 6 10 9 16 5 7 -4 6 1 -2 10 -11 14 -11 17 1 17 7 0 14 9 15 21 1
14 -3 19 -13 15 -8 -3 -14 -1 -14 4 0 5 10 12 22 16 21 6 87 64 73 64 -3 0 -1
9 5 20 7 13 21 20 38 20 33 0 72 26 57 37 -5 5 -10 15 -10 23 0 8 -8 16 -17
18 -10 2 -18 -1 -18 -7 0 -6 6 -11 13 -11 6 0 4 -5 -5 -11 -10 -5 -18 -18 -19
-27 -1 -10 -4 -8 -8 7 -5 20 -20 29 -84 48 -43 13 -80 30 -84 38 -3 8 -11 15
-19 15 -7 0 -11 -6 -8 -14z m129 -135 c-6 -5 -25 10 -25 20 0 5 6 4 14 -3 8
-7 12 -15 11 -17z m-11 -31 c-5 -5 -25 -12 -44 -15 l-35 -5 35 14 c42 18 58
20 44 6z"/>
<path d="M3200 4891 c0 -7 -5 -9 -12 -5 -7 5 -8 3 -3 -5 5 -9 10 -10 18 -2 6
6 8 14 4 18 -4 3 -7 1 -7 -6z"/>
<path d="M3047 4829 c7 -7 15 -10 18 -7 3 3 -2 9 -12 12 -14 6 -15 5 -6 -5z"/>
<path d="M2710 4501 c0 -5 -8 -11 -17 -14 -17 -4 -17 -4 0 -12 11 -5 24 -2 35
8 9 8 26 17 37 20 11 3 4 5 -17 6 -21 0 -38 -3 -38 -8z"/>
<path d="M2555 3567 c-4 -10 -5 -21 -1 -24 10 -10 18 4 13 24 -4 17 -4 17 -12
0z"/>
<path d="M2420 3310 c0 -6 7 -10 15 -10 8 0 15 2 15 4 0 2 -7 6 -15 10 -8 3
-15 1 -15 -4z"/>
<path d="M4248 1763 c7 -3 16 -2 19 1 4 3 -2 6 -13 5 -11 0 -14 -3 -6 -6z"/>
<path d="M3770 1031 c0 -4 11 -6 25 -3 14 2 25 6 25 8 0 2 -11 4 -25 4 -14 0
-25 -4 -25 -9z"/>
<path d="M3715 1010 c3 -5 8 -10 11 -10 2 0 4 5 4 10 0 6 -5 10 -11 10 -5 0
-7 -4 -4 -10z"/>
</g>
</svg>
